<svg id="Figma-light" xmlns="http://www.w3.org/2000/svg" width="325.775" height="90.974" viewBox="0 0 325.775 90.974">
  <path id="Path_66483" data-name="Path 66483" d="M192,251.789A20.789,20.789,0,0,1,212.789,231h49.4a20.789,20.789,0,0,1,20.789,20.789v49.4a20.789,20.789,0,0,1-20.789,20.789h-49.4A20.789,20.789,0,0,1,192,301.185Z" transform="translate(-192 -231)"/>
  <path id="Path_66484" data-name="Path 66484" d="M239.473,351.963A10.662,10.662,0,0,1,250.136,341.3h10.659v10.661a10.661,10.661,0,0,1-21.322,0Z" transform="translate(-215.308 -285.154)" fill="#24cb71"/>
  <path id="Path_66485" data-name="Path 66485" d="M281.36,257.529v21.322h10.659a10.661,10.661,0,1,0,0-21.322Z" transform="translate(-235.873 -244.025)" fill="#ff7237"/>
  <ellipse id="Ellipse_267" data-name="Ellipse 267" cx="10.661" cy="10.661" rx="10.661" ry="10.661" transform="translate(45.398 34.826)" fill="#00b6ff"/>
  <path id="Path_66486" data-name="Path 66486" d="M239.473,268.19a10.661,10.661,0,0,0,10.661,10.661h10.661V257.529H250.134A10.661,10.661,0,0,0,239.473,268.19Z" transform="translate(-215.308 -244.025)" fill="#ff3737"/>
  <path id="Path_66487" data-name="Path 66487" d="M239.473,310.078a10.661,10.661,0,0,0,10.659,10.659h10.663v-21.32H250.134a10.661,10.661,0,0,0-10.661,10.661Z" transform="translate(-215.308 -264.591)" fill="#874fff"/>
  <path id="Path_66488" data-name="Path 66488" d="M778.233,338.316a17.057,17.057,0,0,1-7.55-1.626,14.036,14.036,0,0,1-5.234-4.364,11.429,11.429,0,0,1-1.887-6.5,10.368,10.368,0,0,1,3.089-7.788,17.007,17.007,0,0,1,8.838-4.107l10.039-2.054a7.28,7.28,0,0,0,4.119-1.883,5.6,5.6,0,0,0,1.116-3.767l1.03,10.011-14.416,3.085a9.146,9.146,0,0,0-4.548,2.138,5.769,5.769,0,0,0-1.544,4.276,5.513,5.513,0,0,0,2.145,4.535,9.629,9.629,0,0,0,6.007,1.711,11.869,11.869,0,0,0,5.663-1.369,10.125,10.125,0,0,0,4.119-3.767,10.468,10.468,0,0,0,1.544-5.65V306.228a5.693,5.693,0,0,0-2.231-4.792,8.937,8.937,0,0,0-5.92-1.8q-4.805,0-7.381,2.4a10.214,10.214,0,0,0-3,6.76l-7.551-1.027a15.7,15.7,0,0,1,2.746-7.788,15.121,15.121,0,0,1,6.178-5.134,21.594,21.594,0,0,1,9.181-1.8q7.551,0,11.583,3.85a13.115,13.115,0,0,1,4.033,9.926v30.205h-7.463V331.47a10.24,10.24,0,0,1-4.548,4.877A15.823,15.823,0,0,1,778.233,338.316Z" transform="translate(-472.62 -261.46)" fill="#fff"/>
  <path id="Path_66489" data-name="Path 66489" d="M644.043,337.043v-42.7h7.465v4.794a8.343,8.343,0,0,1,3.775-4.276,12.657,12.657,0,0,1,6.778-1.8,15.024,15.024,0,0,1,6.95,1.625,7.745,7.745,0,0,1,4.119,4.877,8.908,8.908,0,0,1,4.119-4.706,13.4,13.4,0,0,1,6.864-1.8q6.521,0,9.953,3.767t3.432,10.953V337.05h-7.635V308.807q0-4.279-1.887-6.418a6.445,6.445,0,0,0-5.32-2.224,7.2,7.2,0,0,0-6.006,2.738q-2.059,2.653-2.059,7.788v26.354h-7.635V308.807q0-4.279-1.887-6.418a6.445,6.445,0,0,0-5.32-2.224,7.2,7.2,0,0,0-6.007,2.738q-2.059,2.653-2.059,7.788v26.354Z" transform="translate(-413.941 -261.472)" fill="#fff"/>
  <path id="Path_66490" data-name="Path 66490" d="M567.23,352.439q-7.98,0-12.957-3.679a16.419,16.419,0,0,1-6.349-10.268l7.465-1.626a10.745,10.745,0,0,0,4.033,6.5,12.363,12.363,0,0,0,7.809,2.4q5.662,0,8.494-2.91,2.917-2.824,2.918-8.471v-6.759a10.388,10.388,0,0,1-4.805,5.133,15.242,15.242,0,0,1-7.722,1.968,19.009,19.009,0,0,1-9.953-2.567,18.148,18.148,0,0,1-6.693-7.359,25.97,25.97,0,0,1,0-21.819,17.753,17.753,0,0,1,6.607-7.273,18.7,18.7,0,0,1,10.039-2.652,15.716,15.716,0,0,1,7.808,1.968,10.325,10.325,0,0,1,4.891,4.706v-5.391h7.465v40.045a19.653,19.653,0,0,1-2.231,9.672,14.684,14.684,0,0,1-6.521,6.246A22.542,22.542,0,0,1,567.23,352.439Zm-.172-24.472a10.882,10.882,0,0,0,8.752-3.851q3.347-3.85,3.346-10.181,0-6.417-3.346-10.268a11.969,11.969,0,0,0-17.59,0q-3.26,3.85-3.26,10.268,0,6.332,3.346,10.181a11.048,11.048,0,0,0,8.752,3.851Z" transform="translate(-366.328 -261.466)" fill="#fff"/>
  <path id="Path_66491" data-name="Path 66491" d="M516.708,321.228V278.581h7.635v42.7Zm-.086-48.124v-12.15h7.808V273.1Z" transform="translate(-351.381 -245.707)" fill="#fff"/>
  <path id="Path_66492" data-name="Path 66492" d="M430.627,321.278V260.954h8.066v60.324Zm1.629-25.5v-7.273h32.863v7.273Zm0-27.467v-7.358h36.039v7.358Z" transform="translate(-309.159 -245.707)" fill="#fff"/>
</svg>
