<svg xmlns="http://www.w3.org/2000/svg" width="401.073" height="112.001" viewBox="0 0 401.073 112.001">
  <g id="Figma-gray" transform="translate(-191.996 -230.999)">
    <path id="Subtraction_7" data-name="Subtraction 7" d="M4200.405-12328h-60.811a25.546,25.546,0,0,1-9.962-2.011,25.561,25.561,0,0,1-8.133-5.485,25.625,25.625,0,0,1-5.485-8.136,25.429,25.429,0,0,1-2.014-9.963v-60.811a25.4,25.4,0,0,1,2.014-9.962,25.627,25.627,0,0,1,5.485-8.137,25.612,25.612,0,0,1,8.133-5.485,25.6,25.6,0,0,1,9.962-2.011h60.811a25.546,25.546,0,0,1,9.962,2.011,25.489,25.489,0,0,1,8.136,5.485,25.527,25.527,0,0,1,5.485,8.137,25.3,25.3,0,0,1,2.01,9.962v60.811a25.373,25.373,0,0,1-2.01,9.963,25.322,25.322,0,0,1-5.485,8.136,25.362,25.362,0,0,1-8.136,5.485A25.542,25.542,0,0,1,4200.405-12328Zm-43.281-95a13.035,13.035,0,0,0-9.278,3.843,13.043,13.043,0,0,0-3.847,9.282,13.039,13.039,0,0,0,3.847,9.281,13.043,13.043,0,0,0,9.116,3.844,13.072,13.072,0,0,0-9.113,3.843,13.056,13.056,0,0,0-3.846,9.282,13.039,13.039,0,0,0,3.843,9.275,13.073,13.073,0,0,0,9.125,3.846,13.061,13.061,0,0,0-9.121,3.846,13.042,13.042,0,0,0-3.844,9.28,13.039,13.039,0,0,0,3.844,9.28,13.038,13.038,0,0,0,9.281,3.845,13.038,13.038,0,0,0,9.28-3.845,13.036,13.036,0,0,0,3.845-9.28v-13.125l0-11.405a13.136,13.136,0,0,0,4.317,8.111,13.109,13.109,0,0,0,8.7,3.3,13.039,13.039,0,0,0,9.282-3.844,13.037,13.037,0,0,0,3.843-9.281,13.041,13.041,0,0,0-3.843-9.282,13.06,13.06,0,0,0-9.073-3.84,13.042,13.042,0,0,0,9.179-3.847,13.047,13.047,0,0,0,3.843-9.281,13.041,13.041,0,0,0-3.843-9.282,13.039,13.039,0,0,0-9.282-3.843h-26.25Zm13.131,37.657h0v-11.407h13a13.109,13.109,0,0,0-8.686,3.294,13.128,13.128,0,0,0-4.314,8.112Z" transform="translate(-3922.004 12670.999)" fill="#999"/>
    <g id="Group_63516" data-name="Group 63516" transform="translate(0.251 0.374)">
      <path id="Path_66484_-_Outline" data-name="Path 66484 - Outline" d="M252.6,369.8a15.375,15.375,0,0,1,0-30.75h15.374v15.375A15.375,15.375,0,0,1,252.6,369.8Zm-10.875-15.372a10.875,10.875,0,0,0,21.75,0V343.55H252.6a10.876,10.876,0,0,0-10.878,10.878Z" transform="translate(-17.723 -41.178)" fill="#fff"/>
      <path id="Path_66485_-_Outline" data-name="Path 66485 - Outline" d="M279.11,255.279h15.373a15.375,15.375,0,1,1,0,30.75H279.11Zm15.373,26.25a10.875,10.875,0,0,0,0-21.75H283.61v21.75Z" transform="translate(-33.36 -9.904)" fill="#fff"/>
      <path id="Ellipse_267_-_Outline" data-name="Ellipse 267 - Outline" d="M13.125-2.25A15.375,15.375,0,0,1,28.5,13.125,15.375,15.375,0,0,1,13.125,28.5,15.375,15.375,0,0,1-2.25,13.125,15.375,15.375,0,0,1,13.125-2.25Zm0,26.25a10.875,10.875,0,0,0,7.69-18.565,10.875,10.875,0,1,0-15.38,15.38A10.8,10.8,0,0,0,13.125,24Z" transform="translate(247.891 273.875)" fill="#fff"/>
      <path id="Path_66486_-_Outline" data-name="Path 66486 - Outline" d="M267.973,286.029H252.6a15.375,15.375,0,0,1,0-30.75h15.374ZM252.6,259.779a10.875,10.875,0,0,0,0,21.75h10.874v-21.75Z" transform="translate(-17.723 -9.904)" fill="#fff"/>
      <path id="Path_66487_-_Outline" data-name="Path 66487 - Outline" d="M267.973,327.914H252.6a15.374,15.374,0,0,1,0-30.747h15.374Zm-26.25-15.373A10.887,10.887,0,0,0,252.6,323.414h10.877V301.667H252.6a10.875,10.875,0,0,0-10.875,10.875Z" transform="translate(-17.723 -25.542)" fill="#fff"/>
    </g>
    <path id="Path_66488" data-name="Path 66488" d="M781.625,348.78a21,21,0,0,1-9.3-2,17.281,17.281,0,0,1-6.444-5.372,14.072,14.072,0,0,1-2.324-8.006,12.764,12.764,0,0,1,3.8-9.588q3.8-3.69,10.88-5.056l12.359-2.529q3.7-.737,5.07-2.319a6.889,6.889,0,0,0,1.374-4.637l1.268,12.325-17.748,3.8a11.26,11.26,0,0,0-5.6,2.632,7.1,7.1,0,0,0-1.9,5.264,6.787,6.787,0,0,0,2.641,5.584,11.855,11.855,0,0,0,7.395,2.107,14.612,14.612,0,0,0,6.972-1.686,12.464,12.464,0,0,0,5.071-4.637,12.888,12.888,0,0,0,1.9-6.956V309.276a7.01,7.01,0,0,0-2.747-5.9,11,11,0,0,0-7.288-2.215q-5.916,0-9.087,2.95a12.574,12.574,0,0,0-3.7,8.322l-9.3-1.264a19.328,19.328,0,0,1,3.38-9.588,18.617,18.617,0,0,1,7.606-6.321,26.584,26.584,0,0,1,11.3-2.212q9.3,0,14.26,4.74a16.146,16.146,0,0,1,4.965,12.22V347.2h-9.188v-6.843a12.606,12.606,0,0,1-5.6,6A19.48,19.48,0,0,1,781.625,348.78Z" transform="translate(-213.377 -23.161)" fill="#999"/>
    <path id="Path_66489" data-name="Path 66489" d="M644.043,347.208V294.642h9.19v5.9a10.271,10.271,0,0,1,4.648-5.264,15.581,15.581,0,0,1,8.345-2.212,18.5,18.5,0,0,1,8.557,2,9.534,9.534,0,0,1,5.07,6,10.967,10.967,0,0,1,5.07-5.794,16.5,16.5,0,0,1,8.451-2.212q8.028,0,12.254,4.637t4.225,13.484v36.027h-9.4V312.445q0-5.268-2.324-7.9a7.934,7.934,0,0,0-6.549-2.739,8.86,8.86,0,0,0-7.395,3.371q-2.535,3.266-2.535,9.588V347.21h-9.4V312.445q0-5.268-2.324-7.9a7.934,7.934,0,0,0-6.549-2.739,8.859,8.859,0,0,0-7.395,3.371q-2.535,3.266-2.535,9.588V347.21Z" transform="translate(-168.759 -23.17)" fill="#999"/>
    <path id="Path_66490" data-name="Path 66490" d="M571.89,366.165q-9.824,0-15.951-4.53a20.214,20.214,0,0,1-7.817-12.641l9.19-2A13.228,13.228,0,0,0,562.277,355a15.22,15.22,0,0,0,9.613,2.95q6.971,0,10.457-3.582,3.591-3.476,3.592-10.429v-8.322a12.789,12.789,0,0,1-5.916,6.32,18.764,18.764,0,0,1-9.507,2.423,23.4,23.4,0,0,1-12.253-3.16,22.343,22.343,0,0,1-8.24-9.06,31.973,31.973,0,0,1,0-26.862,21.855,21.855,0,0,1,8.134-8.954,23.021,23.021,0,0,1,12.359-3.266,19.349,19.349,0,0,1,9.613,2.423,12.711,12.711,0,0,1,6.021,5.794v-6.636h9.19v49.3a24.2,24.2,0,0,1-2.747,11.907,18.077,18.077,0,0,1-8.028,7.69A27.75,27.75,0,0,1,571.89,366.165Zm-.212-30.128a13.4,13.4,0,0,0,10.775-4.741q4.12-4.74,4.12-12.534,0-7.9-4.12-12.641a14.735,14.735,0,0,0-21.655,0q-4.014,4.74-4.014,12.641,0,7.8,4.12,12.534a13.6,13.6,0,0,0,10.774,4.741Z" transform="translate(-132.555 -23.165)" fill="#999"/>
    <path id="Path_66491" data-name="Path 66491" d="M516.727,335.159v-52.5h9.4v52.566Zm-.105-59.246V260.954h9.613v14.959Z" transform="translate(-121.189 -11.183)" fill="#999"/>
    <path id="Path_66492" data-name="Path 66492" d="M430.627,335.221V260.954h9.93v74.267Zm2.005-31.392v-8.955h40.458v8.955Zm0-33.815v-9.059H477v9.059Z" transform="translate(-88.626 -11.183)" fill="#999"/>
  </g>
</svg>
