<svg xmlns="http://www.w3.org/2000/svg" width="179.441" height="37.996" viewBox="0 0 179.441 37.996">
  <g id="Group_63513" data-name="Group 63513" transform="translate(-0.971 -4.002)">
    <path id="Path_66484" data-name="Path 66484" d="M30.449,31.119a25.759,25.759,0,0,0-1.409-5.19,37.233,37.233,0,0,0-3.58-7.007,39.13,39.13,0,0,0-4.793-6.039A41.8,41.8,0,0,0,14.6,7.732,38.5,38.5,0,0,0,8.244,4.1a.655.655,0,0,0-.56-.062.633.633,0,0,0-.392.808,6.663,6.663,0,0,0,.341.633,39.789,39.789,0,0,1,2.707,6.1A24.119,24.119,0,0,1,11.7,18.12a27.42,27.42,0,0,1-.281,4.743,24.836,24.836,0,0,1-.826,3.5,16.619,16.619,0,0,1-3.014,5.625c-.194.244-.518.452-.489.8a.64.64,0,0,0,.93.541,22.518,22.518,0,0,1,4.474-2.188,20.327,20.327,0,0,1,5.935-1.213,24.278,24.278,0,0,1,3.429.111,29.329,29.329,0,0,1,7.762,1.987.637.637,0,0,0,.813-.32,1.119,1.119,0,0,0,.021-.593v0Zm-4.53-1.625c-.861-.236-1.743-.38-2.619-.543a26.857,26.857,0,0,0-4.619-.305,21.928,21.928,0,0,0-7.589,1.676c-.376.124-.712.344-1.092.456a21.765,21.765,0,0,0,2.747-8.321,21.039,21.039,0,0,0,.215-2.843,7.246,7.246,0,0,0,0-1.363,19.243,19.243,0,0,0-.386-3.305A35.451,35.451,0,0,0,9.83,6.988c-.145-.295-.3-.586-.423-.889a2.845,2.845,0,0,1,.371.164A40.037,40.037,0,0,1,22.7,17.21,36.264,36.264,0,0,1,28.31,27.694a22.862,22.862,0,0,1,.719,2.733,32.336,32.336,0,0,0-3.111-.932h0Z"/>
    <path id="Path_66485" data-name="Path 66485" d="M39.2,30.607a52.249,52.249,0,0,0-3.274-7.17,33.069,33.069,0,0,0-4.262-6.124c-.909-1.014-1.869-1.98-2.837-2.936a33.171,33.171,0,0,0-5.314-4.288A10.881,10.881,0,0,0,20.6,8.744a1.8,1.8,0,0,0-.85-.073.641.641,0,0,0-.2,1.106,22.922,22.922,0,0,1,2.68,2.055A23.547,23.547,0,0,1,26.8,17.19a52.973,52.973,0,0,1,5.729,12.778c.113.34.111.762.417,1a.748.748,0,0,0,.619.084,8.2,8.2,0,0,1,1.841-.2,5.366,5.366,0,0,1,1.358.31c.429.151.854.312,1.274.486a1.8,1.8,0,0,0,.81.254.635.635,0,0,0,.55-.543,1.731,1.731,0,0,0-.192-.757h0Zm-3.051-.942a7.025,7.025,0,0,0-2.375.046,55.349,55.349,0,0,0-5-11.712c-.533-.905-1.082-1.8-1.679-2.668a25.273,25.273,0,0,0-2.241-2.741,47.144,47.144,0,0,1,5.476,5.152,30.316,30.316,0,0,1,4.19,5.794,50.829,50.829,0,0,1,2.826,5.813,7.715,7.715,0,0,1,.286.754c-.5-.132-.979-.327-1.483-.437h0ZM46.335,40.936c-.228-.267-.6-.188-.9-.273a4.293,4.293,0,0,1-1.641-1.071,6.051,6.051,0,0,0-2.1-1.4,3.524,3.524,0,0,0-2.5.055,9.255,9.255,0,0,0-2.354,1.619,3.275,3.275,0,0,1-1.75.808,2.4,2.4,0,0,1-1.673-.475c.645-.3,1.278-.613,1.9-.947a49.287,49.287,0,0,0,4.411-2.593c1.279-.867,2.511-1.8,3.725-2.762a.967.967,0,0,0,.393-.461.644.644,0,0,0-.654-.812c-1.86.1-3.718.257-5.577.358-2.032.117-4.062.276-6.093.4-2.011.1-4.018.278-6.029.385s-4.017.277-6.025.388c-1.99.114-3.976.279-5.967.382l-5.819.386c-1,.058-2,.107-3,.195a.628.628,0,0,0-.538.813,5.849,5.849,0,0,0,.3.6c.322.585.62,1.183.941,1.769-.657.419-1.295.867-1.933,1.313a7.491,7.491,0,0,1-1.611.913c-.237.041-.512.026-.684.229a.63.63,0,0,0,.229,1.037A1.984,1.984,0,0,0,2.6,41.605C3.86,41,4.917,40.066,6.115,39.36a2.667,2.667,0,0,1,1.028-.413,2.294,2.294,0,0,1,1.033.536A15.335,15.335,0,0,0,10.9,41.427a4.047,4.047,0,0,0,2.853.32,8.68,8.68,0,0,0,2.9-1.766,3.117,3.117,0,0,1,1.438-.682,2.1,2.1,0,0,1,1.418.324c.83.515,1.478,1.276,2.334,1.753a3.645,3.645,0,0,0,2.9.4,5.909,5.909,0,0,0,2.272-1.416,4.215,4.215,0,0,1,1.736-1.036,2.547,2.547,0,0,1,2.01.444,11.757,11.757,0,0,0,2.9,1.986,3.711,3.711,0,0,0,3.038-.273,14.439,14.439,0,0,0,1.969-1.466,3.243,3.243,0,0,1,1.407-.706,2.458,2.458,0,0,1,1.761.349c.773.485,1.361,1.207,2.125,1.7a3.275,3.275,0,0,0,2.013.626.635.635,0,0,0,.36-1.056h0Zm-14.1-1.672a5.666,5.666,0,0,1-.555-.407A4.033,4.033,0,0,0,29.248,38a3.738,3.738,0,0,0-2.024.618c-.809.49-1.431,1.236-2.255,1.705a2.449,2.449,0,0,1-1.957.205,15.979,15.979,0,0,1-2.7-1.9,3.487,3.487,0,0,0-2.282-.61,4.459,4.459,0,0,0-2.174.975,7.98,7.98,0,0,1-2.469,1.546,3.161,3.161,0,0,1-2.507-.579c-.89-.56-1.625-1.331-2.515-1.891a2.136,2.136,0,0,0-1.812-.3c-.281-.464-.518-.954-.767-1.435,2.049-.155,4.1-.281,6.15-.4,2.055-.152,4.109-.276,6.164-.4q2.461-.179,4.924-.317c2.441-.176,4.884-.32,7.327-.476,2.227-.171,4.457-.267,6.685-.438,1.014-.055,2.024-.153,3.04-.185a7.206,7.206,0,0,1,1.018-.049,2.088,2.088,0,0,1-.311.283c-.994.725-1.991,1.448-3.044,2.084-1.516.884-3.042,1.755-4.628,2.507a5.666,5.666,0,0,1-.87.331ZM75.916,11.222a1.505,1.505,0,0,1,2.065,1.473,1.521,1.521,0,0,1-2.488,1.024,1.492,1.492,0,0,1,.422-2.5h0Zm15.373-.034c.736-.029,1.475-.027,2.211-.018q-.01,9.078,0,18.156c-.675.009-1.351.009-2.024-.022-.035-.629-.078-1.258-.144-1.883a5.943,5.943,0,0,1-8.678.631,7.272,7.272,0,0,1-1.537-7.86,5.869,5.869,0,0,1,5.557-3.717A5.177,5.177,0,0,1,91.3,18.712c-.029-2.508-.011-5.015-.009-7.525m-4.956,7.2a3.925,3.925,0,0,0-3.056,2.423,5.378,5.378,0,0,0,1.106,5.948,4.185,4.185,0,0,0,5.737-.412,5.491,5.491,0,0,0,.1-6.546,4.076,4.076,0,0,0-3.886-1.413Zm11.255-7.164a1.484,1.484,0,1,1-.422,2.492,1.49,1.49,0,0,1,.422-2.492h0Zm-43.371.391c.852-.011,1.705-.02,2.559.016C58.848,15.7,60.9,19.785,63,23.846q2.813-5.53,5.6-11.07a5.216,5.216,0,0,1,.652-1.15c.838-.049,1.676-.011,2.514,0q-.02,8.845,0,17.691c-.734.02-1.471.018-2.205.013-.006-4.581-.02-9.162.006-13.743-1.882,3.766-3.857,7.483-5.746,11.244-.549.018-1.1.018-1.648.011-1.94-3.688-3.8-7.419-5.743-11.1-.022,4.524,0,9.047-.011,13.571-.736.027-1.473.024-2.211.016q.01-8.852,0-17.706h0Zm53.1,4.922a6.635,6.635,0,0,1,4.56.853,6.339,6.339,0,0,1,2.819,5.5,6.53,6.53,0,0,1-2.085,5.157,6.4,6.4,0,0,1-9.068-.778,7.178,7.178,0,0,1-1.284-5.244,6.086,6.086,0,0,1,5.057-5.494m.472,1.85a4.014,4.014,0,0,0-3.2,3.223,5.828,5.828,0,0,0,.768,4.517,3.826,3.826,0,0,0,4.456,1.322,4.154,4.154,0,0,0,2.576-3.443,5.639,5.639,0,0,0-.913-4.231,3.791,3.791,0,0,0-3.687-1.389Zm26.072.546a4.994,4.994,0,0,1,4.662-2.472c.009.733.006,1.468,0,2.2a5.6,5.6,0,0,0-3.277.829,3.969,3.969,0,0,0-1.341,3.181c0,2.213,0,4.424.009,6.637-.736.018-1.475.016-2.211.009q-.011-6.31,0-12.62c.661,0,1.325,0,1.99,0,.033.744.126,1.486.164,2.231Zm8.941-.066a4.8,4.8,0,0,1,4.018-2.4A4.738,4.738,0,0,1,150.61,17.8a5.994,5.994,0,0,1,1.359,4.215c-.008,2.432.007,4.862-.008,7.295-.728.027-1.457.027-2.187.009q.017-3.538,0-7.078a4.287,4.287,0,0,0-1.183-3.312,3.5,3.5,0,0,0-4.441.406,4.331,4.331,0,0,0-1.2,3.114c-.009,2.293.008,4.583-.007,6.876-.736.006-1.473.009-2.209-.011q.021-6.3,0-12.6c.666-.018,1.334-.018,2-.016.027.722.062,1.446.064,2.171h0Zm12.6.433c1.9-3.425,7.349-3.872,9.811-.853a6.679,6.679,0,0,1,1.351,4.871c-3.306.055-6.613,0-9.919.027a4.717,4.717,0,0,0,1.314,3.252,3.856,3.856,0,0,0,4.921.4,5,5,0,0,0,1.165-1.517,5.363,5.363,0,0,1,2.2-.009,5.853,5.853,0,0,1-3.562,3.8,6.406,6.406,0,0,1-6.175-1.21c-2.373-2.166-2.63-6.039-1.1-8.757m2.584-.079a3.734,3.734,0,0,0-1.332,2.561q3.879.023,7.756,0a4.486,4.486,0,0,0-.8-2.166,4.168,4.168,0,0,0-5.619-.395Zm-82.622-2.5c.739-.027,1.478-.024,2.214-.016-.011,4.2,0,8.409,0,12.614-.736.011-1.473.013-2.209-.016-.011-4.2,0-8.389,0-12.583h0Zm21.654-.009c.734-.016,1.471-.018,2.205,0-.013,4.949.011,9.9-.009,14.847A3.107,3.107,0,0,1,97.9,34.366c-1.081.674-2.395.49-3.6.485.006-.593.009-1.185,0-1.779a5.338,5.338,0,0,0,2.2-.333,1.6,1.6,0,0,0,.516-1.4c0-4.876-.006-9.749,0-14.625Zm20.227-.005c.736-.011,1.473-.013,2.211.016.011,2.5-.011,5,.009,7.492a3.517,3.517,0,0,0,1.349,3.048,3.585,3.585,0,0,0,4.308-.64,4.346,4.346,0,0,0,1.1-3.046c.013-2.286-.009-4.57.009-6.856.734-.024,1.47-.024,2.207-.013q-.008,6.307,0,12.614-1,.013-2,0c-.031-.674-.06-1.349-.106-2.022a5.166,5.166,0,0,1-2.875,2.114,5.331,5.331,0,0,1-4.578-.875,5.237,5.237,0,0,1-1.622-4.076c-.026-2.583,0-5.166-.013-7.749h0Zm50.167.008q1.191-.033,2.386,0c1.36,3.194,2.635,6.427,4.036,9.6,1.462-3.175,2.862-6.378,4.26-9.581.772-.053,1.546-.042,2.318-.027-2.738,6.048-5.392,12.131-8.152,18.165-.754-.011-1.506,0-2.258-.02.944-2.209,2.008-4.362,2.933-6.577-.29-.164-.675-.262-.781-.62-1.592-3.642-3.154-7.3-4.741-10.941h0Z"/>
  </g>
</svg>
