<svg xmlns="http://www.w3.org/2000/svg" width="144.22" height="28" viewBox="0 0 144.22 28">
  <path id="Path_66483" data-name="Path 66483" d="M101.55,16.74a5.086,5.086,0,0,0-4.639,2.24l-.409.84V17.16H92.954V33.4h3.821V23.74c0-2.24,1.228-3.64,3.411-3.64,2.047,0,3.139,1.26,3.139,3.5v9.8h3.82V22.9C107.008,19.12,104.961,16.74,101.55,16.74Zm-18.42,0c-4.5,0-7.232,2.94-7.232,7.56v2.24c0,4.48,2.865,7.14,7.368,7.14,3,0,5.185-1.12,6.413-3.5l-2.32-1.4a5.146,5.146,0,0,1-4.093,2.24c-2.32,0-3.684-1.4-3.684-3.92v-.7H90.225V23.74c-.136-4.2-2.865-7-7.1-7Zm3.548,7.28h-7.1V23.6c0-2.66,1.228-4.2,3.548-4.2,2.183,0,3.548,1.4,3.548,3.92v.7ZM144.8,14.5V11.42H131.7V14.5h4.64V30.32H131.7V33.4h13.1V30.32h-4.639V14.5ZM45.062,11c-5.867,0-9.551,3.78-9.551,9.8v3.22c0,6.02,3.684,9.8,9.551,9.8s9.551-3.78,9.551-9.8V20.8c0-6.02-3.684-9.8-9.551-9.8Zm5.594,13.3c0,4.06-2.047,6.3-5.594,6.3s-5.594-2.24-5.594-6.3V20.52c0-4.06,2.047-6.3,5.594-6.3s5.594,2.24,5.594,6.3ZM66.62,16.88a5.41,5.41,0,0,0-4.639,2.24l-.409.56V17.16H58.024V39h3.82V31.16l.409.56a5.411,5.411,0,0,0,4.5,2.1c3.275,0,6.549-2.24,6.549-7.14v-2.8c-.136-3.5-2.183-7.14-6.686-7Zm2.729,9.66c0,2.66-1.5,4.2-3.82,4.2-2.183,0-3.82-1.68-3.82-4.2V24.16c0-2.52,1.5-4.2,3.82-4.2s3.82,1.68,3.82,4.2v2.38Zm48.165-15.12L109.873,33.4h3.821l1.5-4.76h8.869l1.5,4.62h3.821l-7.641-21.98-4.23.14ZM116.15,25.56l3.411-11.06,3.411,11.06H116.15ZM25.686,22.48a7,7,0,0,0-.546-5.74,6.711,6.711,0,0,0-7.368-3.36,7.145,7.145,0,0,0-6.549-2.24A7.2,7.2,0,0,0,6.038,15.9a6.951,6.951,0,0,0-4.5,3.36,7.1,7.1,0,0,0,.819,8.26A7,7,0,0,0,2.9,33.26a6.711,6.711,0,0,0,7.368,3.36A6.758,6.758,0,0,0,15.453,39,6.9,6.9,0,0,0,22,34.1a6.951,6.951,0,0,0,4.5-3.36,7.1,7.1,0,0,0-.819-8.26ZM15.453,37.18a4.818,4.818,0,0,1-3.275-1.26l.137-.14,5.458-3.22a.852.852,0,0,0,.409-.84V23.88l2.32,1.4v6.58a5.139,5.139,0,0,1-5.049,5.32ZM4.4,32.28a5.192,5.192,0,0,1-.546-3.5l.136.14,5.458,3.22a1.127,1.127,0,0,0,.955,0l6.686-3.92v2.8l-5.458,3.22A5.362,5.362,0,0,1,4.4,32.28ZM3.036,20.24A4.448,4.448,0,0,1,5.765,18v6.58a1.222,1.222,0,0,0,.409.84l6.549,3.92-2.32,1.4h-.136L4.81,27.52a5.7,5.7,0,0,1-1.774-7.28Zm18.829,4.48L15.316,20.8l2.32-1.4h.136l5.458,3.22a5.256,5.256,0,0,1,2.593,5.04,5.357,5.357,0,0,1-3.275,4.48V25.56a1.425,1.425,0,0,0-.682-.84Zm2.319-3.5-.136-.14-5.458-3.22a1.138,1.138,0,0,0-.955,0l-6.549,3.92v-2.8l5.458-3.22A4.857,4.857,0,0,1,22,16.04,5.319,5.319,0,0,1,24.185,21.22ZM9.859,25.98l-2.32-1.4V18a5.043,5.043,0,0,1,3-4.76,5.163,5.163,0,0,1,5.458.7l-.136.14L10.4,17.3a.853.853,0,0,0-.409.84l-.136,7.84Zm1.228-2.8,3-1.68,3,1.68v3.5l-3,1.68-3-1.68Z" transform="translate(-0.583 -11)" fill-rule="evenodd"/>
</svg>
